<svg version="1.1" viewBox="0.0 0.0 256.0 400.0" fill="none" stroke="none" stroke-linecap="square" stroke-miterlimit="10" xmlns:xlink="http://www.w3.org/1999/xlink" xmlns="http://www.w3.org/2000/svg"><clipPath id="p.0"><path d="m0 0l256.0 0l0 400.0l-256.0 0l0 -400.0z" clip-rule="nonzero"/></clipPath><g clip-path="url(#p.0)"><path fill="#999999" d="m0 0l256.0 0l0 400.0l-256.0 0z" fill-rule="evenodd"/><path fill="#858585" d="m111.25984 266.24158l0 0c0 -3.0818481 2.4983215 -5.5801697 5.580162 -5.5801697l22.319984 0l0 0c1.47995 0 2.899292 0.58792114 3.9457703 1.6343994c1.0464935 1.0464783 1.6343994 2.4658203 1.6343994 3.9457703l0 67.516846c0 3.0818481 -2.4983215 5.5801697 -5.5801697 5.5801697l-22.319984 0c-3.0818405 0 -5.580162 -2.4983215 -5.580162 -5.5801697z" fill-rule="evenodd"/><path fill="#666666" d="m0 0l7.3700786 0l0 400.0l-7.3700786 0z" fill-rule="evenodd"/><path fill="#666666" d="m248.62993 0l7.3700714 0l0 400.0l-7.3700714 0z" fill-rule="evenodd"/><path fill="#858585" d="m111.25984 66.241585l0 0c0 -3.0818443 2.4983215 -5.580166 5.580162 -5.580166l22.319984 0l0 0c1.47995 0 2.899292 0.5879059 3.9457703 1.6343918c1.0464935 1.0464821 1.6343994 2.4658165 1.6343994 3.945774l0 67.51684c0 3.081833 -2.4983215 5.5801544 -5.5801697 5.5801544l-22.319984 0c-3.0818405 0 -5.580162 -2.4983215 -5.580162 -5.5801544z" fill-rule="evenodd"/><path fill="#cfe2f3" d="m-167.24147 200.0l-78.67717 0l0 -100.0l78.67717 0z" fill-rule="evenodd"/><path stroke="#000000" stroke-width="1.0" stroke-linejoin="round" stroke-linecap="butt" d="m-167.24147 200.0l-78.67717 0l0 -100.0l78.67717 0z" fill-rule="evenodd"/><path fill="#c9daf8" d="m-167.24147 100.0l-78.67717 0l0 -39.33858l78.67717 0z" fill-rule="evenodd"/><path stroke="#000000" stroke-width="1.0" stroke-linejoin="round" stroke-linecap="butt" d="m-167.24147 100.0l-78.67717 0l0 -39.33858l78.67717 0z" fill-rule="evenodd"/></g></svg>