<svg version="1.1" viewBox="0.0 0.0 256.0 256.0" fill="none" stroke="none" stroke-linecap="square" stroke-miterlimit="10" xmlns:xlink="http://www.w3.org/1999/xlink" xmlns="http://www.w3.org/2000/svg"><clipPath id="p.0"><path d="m0 0l256.0 0l0 256.0l-256.0 0l0 -256.0z" clip-rule="nonzero"/></clipPath><g clip-path="url(#p.0)"><path fill="#000000" fill-opacity="0.0" d="m0 0l256.0 0l0 256.0l-256.0 0z" fill-rule="evenodd"/><path fill="#000000" fill-opacity="0.0" d="m33.74803 59.82677l33.320908 178.4252l121.86212 0l33.320908 -178.4252z" fill-rule="evenodd"/><path stroke="#000000" stroke-width="16.0" stroke-linejoin="round" stroke-linecap="butt" d="m33.74803 59.82677l33.320908 178.4252l121.86212 0l33.320908 -178.4252z" fill-rule="evenodd"/><path fill="#000000" fill-opacity="0.0" d="m101.265236 17.748032l53.469536 0c1.8600311 0 3.6438751 0.7388954 4.9591217 2.0541382c1.3152466 1.3152409 2.0541382 3.0990925 2.0541382 4.9591255l0 35.065475c0 3.1280518E-4 -2.593994E-4 5.645752E-4 -5.645752E-4 5.645752E-4l-67.4955 -5.645752E-4l0 0c-3.1280518E-4 0 -5.645752E-4 -2.5177002E-4 -5.645752E-4 -5.607605E-4l5.645752E-4 -35.064915l0 0c0 -3.8733196 3.139946 -7.0132637 7.0132675 -7.0132637z" fill-rule="evenodd"/><path stroke="#000000" stroke-width="16.0" stroke-linejoin="round" stroke-linecap="butt" d="m101.265236 17.748032l53.469536 0c1.8600311 0 3.6438751 0.7388954 4.9591217 2.0541382c1.3152466 1.3152409 2.0541382 3.0990925 2.0541382 4.9591255l0 35.065475c0 3.1280518E-4 -2.593994E-4 5.645752E-4 -5.645752E-4 5.645752E-4l-67.4955 -5.645752E-4l0 0c-3.1280518E-4 0 -5.645752E-4 -2.5177002E-4 -5.645752E-4 -5.607605E-4l5.645752E-4 -35.064915l0 0c0 -3.8733196 3.139946 -7.0132637 7.0132675 -7.0132637z" fill-rule="evenodd"/><path fill="#000000" d="m119.57481 98.01094l0 0c0 -2.8660355 2.3233795 -5.189415 5.189415 -5.189415l6.4715576 0l0 0c1.3763275 0 2.6962738 0.5467377 3.6694794 1.5199432c0.97320557 0.97320557 1.5199432 2.2931519 1.5199432 3.6694717l0 98.975494c0 2.866043 -2.3233795 5.1894226 -5.1894226 5.1894226l-6.4715576 0c-2.8660355 0 -5.189415 -2.3233795 -5.189415 -5.1894226z" fill-rule="evenodd"/><path fill="#000000" d="m80.973976 98.01094l0 0c0 -2.8660355 2.3233871 -5.189415 5.1894226 -5.189415l6.4715576 0l0 0c1.3763199 0 2.6962662 0.5467377 3.6694717 1.5199432c0.97320557 0.97320557 1.5199432 2.2931519 1.5199432 3.6694717l0 98.975494c0 2.866043 -2.3233795 5.1894226 -5.189415 5.1894226l-6.4715576 0c-2.8660355 0 -5.1894226 -2.3233795 -5.1894226 -5.1894226z" fill-rule="evenodd"/><path fill="#000000" d="m158.17563 98.01094l0 0c0 -2.8660355 2.3233795 -5.189415 5.1894073 -5.189415l6.471573 0l0 0c1.3763123 0 2.6962585 0.5467377 3.669464 1.5199432c0.97320557 0.97320557 1.5199432 2.2931519 1.5199432 3.6694717l0 98.975494c0 2.866043 -2.3233795 5.1894226 -5.1894073 5.1894226l-6.471573 0c-2.8660278 0 -5.1894073 -2.3233795 -5.1894073 -5.1894226z" fill-rule="evenodd"/></g></svg>