<svg version="1.1" viewBox="0.0 0.0 256.0 256.0" fill="none" stroke="none" stroke-linecap="square" stroke-miterlimit="10" xmlns:xlink="http://www.w3.org/1999/xlink" xmlns="http://www.w3.org/2000/svg"><clipPath id="p.0"><path d="m0 0l256.0 0l0 256.0l-256.0 0l0 -256.0z" clip-rule="nonzero"/></clipPath><g clip-path="url(#p.0)"><path fill="#000000" fill-opacity="0.0" d="m0 0l256.0 0l0 256.0l-256.0 0z" fill-rule="evenodd"/><defs><radialGradient id="p.1" gradientUnits="userSpaceOnUse" gradientTransform="matrix(12.317085660308848 0.0 0.0 12.317085660308848 0.0 0.0)" spreadMethod="pad" cx="10.392068670308365" cy="10.392068670308365" fx="10.392068670308365" fy="10.392068670308365" r="12.317085266113281"><stop offset="0.0" stop-color="#ffff00"/><stop offset="1.0" stop-color="#ffd500"/></radialGradient></defs><path fill="url(#p.1)" d="m20.72441 128.0l0 0c0 -59.246674 48.028915 -107.27559 107.27559 -107.27559l0 0c28.451248 0 55.73723 11.3022175 75.8553 31.420294c20.118073 20.118076 31.420288 47.40404 31.420288 75.8553l0 0c0 59.246674 -48.028915 107.27559 -107.27559 107.27559l0 0c-59.246674 0 -107.27559 -48.028915 -107.27559 -107.27559z" fill-rule="evenodd"/><path stroke="#666666" stroke-width="12.0" stroke-linejoin="round" stroke-linecap="butt" d="m20.72441 128.0l0 0c0 -59.246674 48.028915 -107.27559 107.27559 -107.27559l0 0c28.451248 0 55.73723 11.3022175 75.8553 31.420294c20.118073 20.118076 31.420288 47.40404 31.420288 75.8553l0 0c0 59.246674 -48.028915 107.27559 -107.27559 107.27559l0 0c-59.246674 0 -107.27559 -48.028915 -107.27559 -107.27559z" fill-rule="evenodd"/><path fill="#346dc9" d="m-223.27884 144.96683c-1.6564178 1.5040283 -4.1093597 7.7462616 -3.9429169 9.75531c0.16644287 2.0090485 3.2851715 3.803009 4.9415894 2.298996c1.6564178 -1.5040283 5.1633606 -9.314087 4.9969177 -11.323135c-0.16644287 -2.0090485 -4.3391724 -2.235199 -5.99559 -0.73117065z" fill-rule="evenodd"/><path fill="#346dc9" d="m-175.37628 97.17129c1.4667664 -1.6895828 7.653122 -4.28051 9.665527 -4.158531c2.0124054 0.12197113 3.8756866 3.2007904 2.408905 4.890381c-1.4667664 1.6895905 -9.197113 5.3691254 -11.209518 5.247154c-2.0124054 -0.12197113 -2.3316803 -4.2894135 -0.86491394 -5.979004z" fill-rule="evenodd"/><path fill="#3c78d8" d="m-202.00494 167.40814c-14.594391 -14.356445 -43.510086 -35.9402 -43.188004 -50.65428c0.32209778 -14.714073 24.105957 -44.61522 45.120544 -37.630165c21.014587 6.9850464 73.89266 58.912315 80.966965 79.54046c7.0743103 20.628143 -24.704544 42.77104 -38.521133 44.228363c-13.816574 1.4573364 -29.783966 -21.12793 -44.378372 -35.484375z" fill-rule="evenodd"/><path fill="#3c74cf" d="m-201.30959 158.42627c2.5395203 -9.605774 30.06926 -37.871292 39.748596 -40.631554c9.679352 -2.7602615 20.867004 14.464195 18.327484 24.06997c-2.5395355 9.605759 -23.8853 30.804382 -33.56465 33.564636c-9.679337 2.7602692 -27.050964 -7.397293 -24.511429 -17.003052z" fill-rule="evenodd"/><path fill="#1155cc" d="m-238.09927 118.255684c2.1244965 3.2532196 11.88475 14.87191 15.13797 17.925926c3.2532196 3.054016 6.505829 3.651413 4.3813324 0.39819336c-2.1244965 -3.2532196 -13.875122 -16.863472 -17.128342 -19.917496c-3.2532043 -3.054016 -4.515457 -1.6598434 -2.3909607 1.5933762z" fill-rule="evenodd"/><path fill="#1155cc" d="m-203.75317 83.90958c3.2532196 2.124504 14.871918 11.884758 17.925934 15.13797c3.054016 3.2532196 3.651413 6.5058365 0.39819336 4.3813324c-3.2532196 -2.1244965 -16.86348 -13.875114 -19.917496 -17.128334c-3.054016 -3.2532196 -1.6598358 -4.515465 1.5933685 -2.3909683z" fill-rule="evenodd"/><path fill="#ff9900" fill-opacity="0.2975" d="m-244.71529 120.80189c-0.5974884 -3.0539246 -0.19909668 -7.1701965 0.5975952 -10.157845c0.7966919 -2.9876556 3.751007 -8.863464 4.182541 -7.7680817c0.43151855 1.0953827 -1.4937744 9.9917755 -1.5933838 14.340378c-0.099594116 4.3485947 1.5269165 11.1536255 0.9957886 11.751221c-0.5311279 0.5975952 -3.5850372 -5.1117554 -4.182541 -8.165672z" fill-rule="evenodd"/><path fill="#ff9900" fill-opacity="0.2975" d="m-202.31773 78.40434c-3.0539246 -0.59749603 -7.1701965 -0.19909668 -10.157852 0.5975876c-2.9876556 0.7966919 -8.863464 3.751007 -7.7680817 4.1825333c1.0953827 0.4315338 9.991791 -1.4937744 14.340378 -1.5933685c4.3486023 -0.099601746 11.153641 1.5269089 11.751221 0.99578094c0.5975952 -0.5311279 -5.11174 -3.5850449 -8.165665 -4.1825333z" fill-rule="evenodd"/><path fill="#434343" d="m-214.6395 144.50449c0.39839172 -5.776108 8.066772 -15.104324 14.141586 -21.710258c6.0747986 -6.605934 16.36528 -16.82994 22.307251 -17.925323c5.941986 -1.0953827 14.307251 5.6102448 13.3446045 11.35302c-0.96266174 5.7427826 -12.780136 16.232147 -19.120514 23.103653c-6.3403625 6.8714905 -13.809555 17.262161 -18.921707 18.12532c-5.112152 0.8631439 -12.149612 -7.170288 -11.751221 -12.946411z" fill-rule="evenodd"/><path fill="#1155cc" d="m-199.4271 160.33879c2.1244965 3.2532196 11.88475 14.871902 15.13797 17.925919c3.2532196 3.0540314 6.505829 3.651413 4.3813324 0.39819336c-2.1244965 -3.2532043 -13.875122 -16.863464 -17.128342 -19.917496c-3.2532196 -3.054016 -4.515457 -1.6598358 -2.3909607 1.5933838z" fill-rule="evenodd"/><path fill="#1155cc" d="m-159.8899 120.80159c3.2532196 2.124504 14.871902 11.88475 17.925919 15.13797c3.054016 3.2532196 3.651413 6.505829 0.39819336 4.3813324c-3.2532196 -2.1244965 -16.863464 -13.875122 -19.917496 -17.128334c-3.054016 -3.2532196 -1.6598358 -4.5154724 1.5933838 -2.3909683z" fill-rule="evenodd"/><path fill="#434343" d="m-167.43314 191.31241c2.3568573 -3.8836365 15.135864 -12.5469055 21.11055 -18.720856c5.974701 -6.173935 11.219055 -16.397614 14.737595 -18.3228c3.5185394 -1.9251862 7.8359756 2.029602 6.373642 6.771698c-1.4623413 4.742111 -9.272278 15.872101 -15.147675 21.680939c-5.8753967 5.808838 -15.592361 11.740219 -20.104721 13.172058c-4.5123444 1.431839 -9.326248 -0.6973877 -6.969391 -4.5810394z" fill-rule="evenodd"/><path fill="#f3f3f3" fill-opacity="0.6203" d="m-224.89235 112.66221c-0.33128357 -2.6866837 -0.36801147 -12.218758 0 -14.132477c0.36799622 -1.9137192 1.8767548 -0.036514282 2.208023 2.6501694c0.3312683 2.6866913 0.14761353 11.556221 -0.22039795 13.46994c-0.36801147 1.9137192 -1.6563568 0.6990509 -1.9876251 -1.9876328z" fill-rule="evenodd"/><path fill="#f3f3f3" fill-opacity="0.6203" d="m-219.12027 106.890114c-0.3312683 -2.6866837 -0.36799622 -12.218758 0 -14.132477c0.36801147 -1.9137192 1.87677 -0.036514282 2.2080383 2.650177c0.3312683 2.6866837 0.14759827 11.556213 -0.22039795 13.469933c-0.36801147 1.9137192 -1.6563568 0.69905853 -1.9876404 -1.9876328z" fill-rule="evenodd"/><path fill="#cd7e2b" d="m376.2824 93.907104c-2.1963196 -0.1065979 -8.239471 2.5256042 -9.520233 4.0374603c-1.2807617 1.5118561 -0.36065674 4.9270935 1.8356628 5.0336914c2.19635 0.10660553 10.061554 -2.8822098 11.342316 -4.3940735c1.2807617 -1.5118561 -1.4614258 -4.5704727 -3.6577454 -4.6770782z" fill-rule="evenodd"/><path fill="#cd7e2b" d="m442.79068 93.97869c2.1941223 -0.1548233 8.295807 2.3441086 9.610046 3.8275375c1.31427 1.4834213 0.4696045 4.9181747 -1.7245178 5.072998c-2.1940918 0.1548233 -10.1258545 -2.660637 -11.440094 -4.144058c-1.31427 -1.4834213 1.3604736 -4.601654 3.5545654 -4.7564774z" fill-rule="evenodd"/><path fill="#e69138" d="m375.47107 124.2782c-0.16537476 -20.118912 -5.2605896 -55.212677 5.188568 -65.21416c10.449127 -10.001472 47.756622 -14.252571 57.506226 5.205311c9.749603 19.457886 10.410339 92.29064 0.991333 111.542c-9.419006 19.251343 -46.891052 12.555008 -57.5054 3.9661407c-10.614349 -8.588852 -6.015381 -35.380386 -6.180725 -55.4993z" fill-rule="evenodd"/><path fill="#dc8a34" d="m382.19684 118.52785c8.440826 -4.9109573 47.217865 -5.4223175 55.86322 -0.61363983c8.645386 4.8086777 4.44989 24.554756 -3.9909363 29.465721c-8.440857 4.9109497 -38.008667 4.80867 -46.654053 0c-8.645386 -4.8086853 -13.659088 -23.941132 -5.218231 -28.852081z" fill-rule="evenodd"/><path fill="#b45f06" d="m384.54648 65.03878c-0.7843933 3.7371597 -2.0758667 18.5941 -1.937439 22.977211c0.13842773 4.38311 1.9836121 7.058609 2.7680054 3.321457c0.7843933 -3.7371597 2.0767212 -21.361282 1.9382935 -25.744392c-0.13842773 -4.38311 -1.9844666 -4.2914276 -2.7688599 -0.5542755z" fill-rule="evenodd"/><path fill="#b45f06" d="m432.28842 65.03878c0.7843628 3.7371597 2.0758667 18.5941 1.937439 22.977211c-0.13842773 4.38311 -1.9836426 7.058609 -2.768036 3.321457c-0.7843628 -3.7371597 -2.0766907 -21.361282 -1.9382629 -25.744392c0.13842773 -4.38311 1.9844666 -4.2914276 2.7688599 -0.5542755z" fill-rule="evenodd"/><path fill="#ff9900" fill-opacity="0.2975" d="m378.1786 62.209366c1.7070618 -2.537487 4.844452 -5.1211624 7.474304 -6.6437416c2.6298828 -1.5225754 8.766235 -3.5528145 8.304901 -2.4917145c-0.46133423 1.0611 -7.98172 5.9055443 -11.0729065 8.858318c-3.091217 2.952774 -6.6899414 8.812134 -7.474304 8.858322c-0.7843933 0.046188354 1.0609436 -6.0436935 2.7680054 -8.581184z" fill-rule="evenodd"/><path fill="#ff9900" fill-opacity="0.2975" d="m437.1123 62.209366c-1.7070312 -2.537487 -4.8444214 -5.1211624 -7.474304 -6.6437416c-2.6298523 -1.5225754 -8.766205 -3.5528145 -8.304871 -2.4917145c0.46133423 1.0611 7.9816895 5.9055443 11.072876 8.858318c3.091217 2.952774 6.6899414 8.812134 7.4743347 8.858322c0.7843628 0.046188354 -1.0609741 -6.0436935 -2.768036 -8.581184z" fill-rule="evenodd"/><path fill="#434343" d="m382.6079 99.5869c4.290863 -3.737152 16.102386 -4.8906326 24.914642 -5.2597275c8.812286 -0.36910248 23.068481 -0.3229065 27.958984 3.0451508c4.890503 3.3680573 6.0438232 13.8413315 1.3840027 17.1632c-4.6598206 3.3218765 -20.161621 2.3989258 -29.342987 2.7680206c-9.181366 0.36909485 -21.592773 2.3993378 -25.745209 -0.5534363c-4.1524353 -2.952774 -3.4602966 -13.426048 0.8305664 -17.163208z" fill-rule="evenodd"/><path fill="#a65908" d="m382.17587 121.16529c-0.7843933 3.737152 -2.0758972 18.594093 -1.9374695 22.977211c0.13842773 4.3831024 1.9836426 7.058609 2.768036 3.3214417c0.7843628 -3.737152 2.0766907 -21.361275 1.9382629 -25.744385c-0.13842773 -4.38311 -1.9844666 -4.2914276 -2.7688293 -0.5542679z" fill-rule="evenodd"/><path fill="#a65908" d="m437.13348 121.16529c0.7843628 3.737152 2.0758667 18.594093 1.937439 22.977211c-0.13842773 4.3831024 -1.9836426 7.058609 -2.7680054 3.3214417c-0.7843933 -3.737152 -2.0767212 -21.361275 -1.9382935 -25.744385c0.13842773 -4.38311 1.9844666 -4.2914276 2.7688599 -0.5542679z" fill-rule="evenodd"/><path fill="#434343" d="m382.88513 164.92929c4.337097 -1.0610962 19.239227 1.7992859 27.682373 1.6608124c8.443146 -0.13847351 19.193237 -3.5990448 22.976562 -2.491684c3.7833252 1.1073608 4.03537 6.8564606 -0.27664185 9.135864c-4.3120117 2.2794037 -17.475037 4.5868073 -25.595428 4.5405426c-8.120422 -0.04626465 -18.99582 -2.6772003 -23.126984 -4.818115c-4.131134 -2.1409302 -5.9969482 -6.966324 -1.6598816 -8.02742z" fill-rule="evenodd"/><path fill="#f3f3f3" fill-opacity="0.6203" d="m397.61304 70.33016c1.6369934 -2.0974426 8.236145 -8.74765 9.821899 -9.821903c1.5857849 -1.0742531 1.3297119 1.2789536 -0.3072815 3.3763962c-1.6369629 2.0974464 -7.928833 8.134014 -9.514618 9.208271c-1.5857544 1.0742493 -1.6369934 -0.6653137 0 -2.762764z" fill-rule="evenodd"/><path fill="#f3f3f3" fill-opacity="0.6203" d="m405.63632 70.33016c1.6369934 -2.0974426 8.236145 -8.74765 9.821899 -9.821903c1.5857849 -1.0742531 1.3297119 1.2789536 -0.3072815 3.3763962c-1.6369629 2.0974464 -7.928833 8.134014 -9.514618 9.208271c-1.5857544 1.0742493 -1.6369934 -0.6653137 0 -2.762764z" fill-rule="evenodd"/><path fill="#cd7e2b" d="m389.36542 307.46902c-1.628418 1.4779358 -4.0408325 7.612854 -3.8776855 9.587585c0.16311646 1.9747314 3.228119 3.738739 4.856537 2.2608032c1.6284485 -1.4779358 5.077179 -9.1536255 4.914032 -11.128357c-0.16311646 -1.9747314 -4.264435 -2.1979675 -5.8928833 -0.72003174z" fill-rule="evenodd"/><path fill="#cd7e2b" d="m436.4435 260.49292c1.441925 -1.6610718 7.523529 -4.208954 9.501831 -4.089447c1.9783325 0.11953735 3.8099976 3.1455078 2.368042 4.8065796c-1.441925 1.6610718 -9.041382 5.2793274 -11.019684 5.15979c-1.9783325 -0.119506836 -2.2921448 -4.215851 -0.8501892 -5.8769226z" fill-rule="evenodd"/><path fill="#e69138" d="m410.27414 329.52682c-14.345245 -14.111359 -42.767303 -35.32663 -42.450714 -49.78952c0.31658936 -14.46286 23.694427 -43.85353 44.35025 -36.987732c20.655823 6.865799 72.631165 57.906555 79.58469 78.182526c6.9535217 20.27597 -24.282776 42.040863 -37.863495 43.473297c-13.580719 1.4324646 -29.275513 -20.767212 -43.620728 -34.87857z" fill-rule="evenodd"/><path fill="#dc8a34" d="m410.95602 320.69742c2.4959412 -9.4410095 29.553467 -37.22168 39.066803 -39.9346c9.513306 -2.7129211 20.509064 14.216095 18.013092 23.657104c-2.4959717 9.440979 -23.475586 30.27597 -32.988922 32.98889c-9.513306 2.7129211 -26.586945 -7.2703857 -24.090973 -16.711395z" fill-rule="evenodd"/><path fill="#b45f06" d="m374.79556 281.21356c2.0882263 3.1976929 11.681854 14.618011 14.879547 17.619904c3.1976624 3.0018616 6.394745 3.5890503 4.3065186 0.39138794c-2.0882263 -3.1976929 -13.638245 -16.575592 -16.835907 -19.577454c-3.1976929 -3.001892 -4.438385 -1.6315002 -2.3501587 1.5661621z" fill-rule="evenodd"/><path fill="#b45f06" d="m408.5538 247.45534c3.1976929 2.0882263 14.618011 11.681839 17.619904 14.879532c3.0018616 3.1976624 3.5890503 6.394745 0.39138794 4.3065186c-3.1976929 -2.0882263 -16.575592 -13.638229 -19.577454 -16.835907c-3.001892 -3.1976776 -1.6315002 -4.438385 1.5661621 -2.3501434z" fill-rule="evenodd"/><path fill="#ff9900" fill-opacity="0.2975" d="m368.29288 283.71622c-0.5872803 -3.00177 -0.19570923 -7.04776 0.5873718 -9.9844055c0.7831116 -2.9366455 3.6869812 -8.712158 4.111145 -7.6354675c0.42416382 1.0766602 -1.4682617 9.8211975 -1.5661621 14.095551c-0.09790039 4.274353 1.500824 10.963226 0.97875977 11.550598c-0.5220337 0.58740234 -3.5238342 -5.024475 -4.1111145 -8.026276z" fill-rule="evenodd"/><path fill="#ff9900" fill-opacity="0.2975" d="m409.96472 242.0444c-3.0018005 -0.58729553 -7.0477905 -0.19570923 -9.984436 0.5873871c-2.9366455 0.78308105 -8.712158 3.686966 -7.6354675 4.1111298c1.0766907 0.42416382 9.8211975 -1.468277 14.095551 -1.5661774c4.274353 -0.09790039 10.963226 1.5008392 11.550598 0.9787903c0.58740234 -0.5220642 -5.024475 -3.5238495 -8.026245 -4.1111298z" fill-rule="evenodd"/><path fill="#434343" d="m397.85443 307.01364c0.39160156 -5.67749 7.929077 -14.846466 13.900177 -21.33963c5.9711 -6.4931335 16.085876 -16.542603 21.926422 -17.619293c5.8405457 -1.0766907 14.062988 5.5144653 13.11676 11.15921c-0.9461975 5.644745 -12.561951 15.955017 -18.794067 22.709198c-6.2321167 6.7542114 -13.5737915 16.967468 -18.598663 17.815887c-5.0249023 0.8484192 -11.9422 -7.0478516 -11.550629 -12.725372z" fill-rule="evenodd"/><path fill="#a65908" d="m412.80673 322.57727c2.0882263 3.1976929 11.681854 14.618011 14.879517 17.619904c3.1976929 3.0018616 6.3947754 3.5890808 4.306549 0.39138794c-2.0882263 -3.1976624 -13.638245 -16.575592 -16.835938 -19.577454c-3.1976624 -3.001892 -4.4383545 -1.6315002 -2.3501282 1.5661621z" fill-rule="evenodd"/><path fill="#a65908" d="m451.6672 283.7168c3.1976929 2.0882263 14.618011 11.681854 17.619904 14.879517c3.001892 3.1976929 3.5890808 6.3947754 0.39138794 4.306549c-3.1976624 -2.0882568 -16.575562 -13.638245 -19.577454 -16.835938c-3.001892 -3.1976624 -1.6315002 -4.438385 1.5661621 -2.3501282z" fill-rule="evenodd"/><path fill="#434343" d="m444.25354 353.02148c2.3164368 -3.8170166 14.876251 -12.331696 20.748474 -18.39975c5.8721924 -6.0680237 11.026611 -16.116333 14.484772 -18.008484c3.458191 -1.8921814 7.701599 1.9947815 6.2643433 6.655548c-1.4372559 4.6607666 -9.113251 15.599823 -14.887848 21.309021c-5.7746277 5.709198 -15.324921 11.538849 -19.759888 12.946136c-4.4349365 1.4072876 -9.16626 -0.6854248 -6.8498535 -4.502472z" fill-rule="evenodd"/><path fill="#f3f3f3" fill-opacity="0.6203" d="m387.776 275.7155c-0.32559204 -2.640625 -0.36169434 -12.009186 0 -13.890076c0.36169434 -1.8808899 1.8445435 -0.035888672 2.1701355 2.6047058c0.32559204 2.6405945 0.14508057 11.358002 -0.21661377 13.238892c-0.36169434 1.8808899 -1.6279602 0.68707275 -1.9535217 -1.9535217z" fill-rule="evenodd"/><path fill="#f3f3f3" fill-opacity="0.6203" d="m393.4493 270.04218c-0.32559204 -2.6405945 -0.36169434 -12.009155 0 -13.890045c0.36169434 -1.8809052 1.844574 -0.035888672 2.170166 2.6047058c0.32556152 2.6405945 0.14505005 11.358002 -0.21664429 13.238892c-0.36169434 1.8808899 -1.6279297 0.68707275 -1.9535217 -1.9535522z" fill-rule="evenodd"/><path fill="#e1b220" d="m85.660675 133.58461c-1.6566544 1.5040436 -4.110214 7.7466583 -3.9438858 9.75589c0.16632843 2.0092316 3.285202 3.803543 4.9418564 2.2994995c1.6566544 -1.5040436 5.164398 -9.314529 4.99807 -11.323761c-0.16632843 -2.0092316 -4.339386 -2.235672 -5.9960403 -0.7316284z" fill-rule="evenodd"/><path fill="#e1b220" d="m133.56404 85.78866c1.4669037 -1.689743 7.6536713 -4.2815704 9.666183 -4.1599426c2.0125122 0.12162781 3.8757935 3.1999664 2.4088898 4.889717c-1.4669037 1.689743 -9.1978 5.370384 -11.210312 5.2487564c-2.0125122 -0.12162781 -2.331665 -4.288788 -0.86476135 -5.978531z" fill-rule="evenodd"/><path fill="#f1c232" d="m106.936226 156.0287c-14.59536 -14.357391 -43.512978 -35.94258 -43.190865 -50.65763c0.3221054 -14.71505 24.107552 -44.61817 45.12352 -37.63266c21.015976 6.985512 73.89755 58.91622 80.972336 79.54572c7.074768 20.629501 -24.706192 42.773865 -38.52368 44.231293c-13.817505 1.457428 -29.78595 -21.129333 -44.38131 -35.486725z" fill-rule="evenodd"/><path fill="#dcb02a" d="m107.63034 147.04463c2.5398788 -9.607086 30.073425 -37.87652 39.754105 -40.63717c9.680679 -2.760643 20.869888 14.466202 18.330017 24.073296c-2.5398865 9.607101 -23.88861 30.80864 -33.56929 33.56929c-9.680687 2.7606354 -27.05471 -7.3983154 -24.514832 -17.005417z" fill-rule="evenodd"/><path fill="#bf9000" d="m70.83906 106.87283c2.1246414 3.2534332 11.885544 14.872894 15.138977 17.927116c3.2534256 3.054222 6.506256 3.6516495 4.3816147 0.39821625c-2.1246414 -3.2534256 -13.87603 -16.864586 -17.129463 -19.918808c-3.2534332 -3.054222 -4.51577 -1.6599503 -2.3911285 1.5934753z" fill-rule="evenodd"/><path fill="#bf9000" d="m105.18657 72.52533c3.2534332 2.1246414 14.872887 11.885536 17.927109 15.138969c3.054222 3.2534332 3.651657 6.5062637 0.39822388 4.3816223c-3.2534332 -2.1246414 -16.864594 -13.876038 -19.918816 -17.12947c-3.054222 -3.2534332 -1.6599503 -4.5157623 1.593483 -2.391121z" fill-rule="evenodd"/><path fill="#ff9900" fill-opacity="0.2975" d="m64.22298 109.41933c-0.59752655 -3.054123 -0.19910431 -7.170662 0.59763336 -10.158516c0.7967377 -2.987854 3.7512589 -8.864052 4.1828156 -7.7686005c0.43154907 1.095459 -1.4938812 9.992447 -1.593483 14.3413315c-0.099609375 4.3488846 1.527008 11.154366 0.9958496 11.751999c-0.53115845 0.59762573 -3.5852814 -5.112091 -4.1828156 -8.166214z" fill-rule="evenodd"/><path fill="#ff9900" fill-opacity="0.2975" d="m106.62224 67.020065c-3.054123 -0.59752655 -7.170662 -0.19911194 -10.158516 0.59763336c-2.987854 0.7967377 -8.864052 3.7512512 -7.768593 4.182808c1.0954514 0.4315567 9.992439 -1.4938736 14.341324 -1.5934753c4.348892 -0.099609375 11.154373 1.527008 11.751999 0.9958496c0.59763336 -0.5311661 -5.112091 -3.5852814 -8.166214 -4.1828156z" fill-rule="evenodd"/><path fill="#434343" d="m94.29963 133.1225c0.39842224 -5.7764893 8.067314 -15.105331 14.142517 -21.7117c6.0752106 -6.606369 16.366371 -16.831055 22.308739 -17.926506c5.9423676 -1.095459 14.308197 5.6106186 13.345474 11.353775c-0.9627075 5.7431564 -12.780975 16.233223 -19.121773 23.105171c-6.340782 6.8719482 -13.810463 17.263306 -18.922958 18.126526c-5.1124954 0.86320496 -12.150421 -7.170761 -11.751999 -12.947266z" fill-rule="evenodd"/><path fill="#ae8505" d="m109.51239 148.95724c2.1246414 3.2534332 11.885544 14.872894 15.138977 17.927109c3.2534332 3.0542297 6.506256 3.651657 4.3816223 0.39822388c-2.1246414 -3.2534332 -13.876038 -16.864594 -17.12947 -19.918808c-3.2534332 -3.0542297 -4.51577 -1.6599579 -2.3911285 1.5934753z" fill-rule="evenodd"/><path fill="#ae8505" d="m149.05122 109.41842c3.2534332 2.1246414 14.872879 11.885544 17.927109 15.138977c3.0542145 3.2534256 3.651657 6.5062637 0.39822388 4.3816147c-3.2534332 -2.1246414 -16.864594 -13.87603 -19.918823 -17.129463c-3.0542145 -3.2534332 -1.6599426 -4.51577 1.5934906 -2.3911285z" fill-rule="evenodd"/><path fill="#434343" d="m141.50748 179.93169c2.357193 -3.8841858 15.13797 -12.54866 21.11348 -18.72345c5.975525 -6.1748047 11.220596 -16.399887 14.739624 -18.325348c3.5190277 -1.9254456 7.8370667 2.0298767 6.374527 6.772644c-1.4625397 4.7427673 -9.27356 15.874298 -15.149765 21.68393c-5.8762054 5.8096466 -15.594528 11.741852 -20.107498 13.173889c-4.512985 1.4320374 -9.32756 -0.69747925 -6.9703674 -4.581665z" fill-rule="evenodd"/><path fill="#f3f3f3" fill-opacity="0.6203" d="m84.04726 101.27974c-0.33132172 -2.6870575 -0.36805725 -12.220451 0 -14.134438c0.36805725 -1.9139786 1.8770218 -0.036514282 2.2083359 2.6505432c0.33132172 2.6870575 0.14762878 11.557816 -0.22042847 13.471802c-0.36805725 1.9139786 -1.6565933 0.6991501 -1.9879074 -1.9879074z" fill-rule="evenodd"/><path fill="#f3f3f3" fill-opacity="0.6203" d="m89.819595 95.5074c-0.3313141 -2.6870575 -0.36805725 -12.220459 0 -14.134438c0.36805725 -1.9139862 1.8770218 -0.036514282 2.2083359 2.6505432c0.33132172 2.6870575 0.14762878 11.557816 -0.22042847 13.471794c-0.36805725 1.9139862 -1.6565857 0.6991577 -1.9879074 -1.9878998z" fill-rule="evenodd"/></g></svg>